<svg xmlns="http://www.w3.org/2000/svg" version="1.0" width="1280" height="1280" preserveAspectRatio="xMidYMid meet"><rect id="backgroundrect" width="100%" height="100%" x="0" y="0" fill="none" stroke="none"/><g class="currentLayer" style=""><title>Layer 1</title><path fill="none" fill-opacity="1" stroke="#0404b8" stroke-opacity="1" stroke-width="35" stroke-dasharray="none" stroke-linejoin="miter" stroke-linecap="butt" stroke-dashoffset="" fill-rule="nonzero" opacity="1" marker-start="" marker-mid="" marker-end="" d="M978.56755,878.7022754978943 C1437.12357,867.0440554978943 997.76966,320.19944549789426 947.46395,509.10135549789425 C897.15824,698.0032654978943 550.8182,704.4307654978943 590.8182,800.6147654978943 C630.8182,896.7987754978943 559.71807,969.9452254978943 815.29321,1039.9850254978942 C1070.86836,1110.0248254978942 520.01157,890.3605054978943 978.56755,878.7022754978943 z" class="" id="svg_5"/><path fill="none" fill-opacity="1" stroke="#1a1aeb" stroke-opacity="1" stroke-width="53" stroke-dasharray="none" stroke-linejoin="miter" stroke-linecap="butt" stroke-dashoffset="" fill-rule="nonzero" opacity="1" marker-start="" marker-mid="" marker-end="" d="M217.38857888275797,593.8709589441461 C-212.57360372729482,581.7903137549145 186.05751985940154,1.9433817551096126 484.52484254175243,63.81488060760455 C782.9921512312513,125.68639492797809 978.0908901219767,207.74890455287652 978.0908901219767,416.69344769393047 C978.0908901219767,625.6379908349843 584.5480852480334,797.695417724889 283.53661020573196,789.2583860139841 C-17.474864836569452,780.8213543030795 647.3507474999589,605.9516041333778 217.38857888275797,593.8709589441461 z" id="svg_3" class=""/><path fill="#1a1aeb" fill-opacity="1" stroke="none" stroke-opacity="1" stroke-width="53" stroke-dasharray="none" stroke-linejoin="miter" stroke-linecap="butt" stroke-dashoffset="" fill-rule="nonzero" opacity="1" marker-start="" marker-mid="" marker-end="" d="M277.5454559326172,367.04545402526855 C277.5454559326172,341.90733247830724 299.92114654035197,321.54545402526855 327.5454559326172,321.54545402526855 C355.1697653248824,321.54545402526855 377.5454559326172,341.90733247830724 377.5454559326172,367.04545402526855 C377.5454559326172,392.18357557222987 355.1697653248824,412.54545402526855 327.5454559326172,412.54545402526855 C299.92114654035197,412.54545402526855 277.5454559326172,392.18357557222987 277.5454559326172,367.04545402526855 z" id="svg_1" class=""/><path fill="#1a1aeb" fill-opacity="1" stroke="none" stroke-opacity="1" stroke-width="53" stroke-dasharray="none" stroke-linejoin="miter" stroke-linecap="butt" stroke-dashoffset="" fill-rule="nonzero" opacity="1" marker-start="" marker-mid="" marker-end="" d="M455.7272644042969,367.04545402526855 C455.7272644042969,341.90733247830724 478.10295501203166,321.54545402526855 505.7272644042969,321.54545402526855 C533.3515737965621,321.54545402526855 555.7272644042969,341.90733247830724 555.7272644042969,367.04545402526855 C555.7272644042969,392.18357557222987 533.3515737965621,412.54545402526855 505.7272644042969,412.54545402526855 C478.10295501203166,412.54545402526855 455.7272644042969,392.18357557222987 455.7272644042969,367.04545402526855 z" class="" id="svg_2"/><path fill="#1a1aeb" fill-opacity="1" stroke="none" stroke-opacity="1" stroke-width="53" stroke-dasharray="none" stroke-linejoin="miter" stroke-linecap="butt" stroke-dashoffset="" fill-rule="nonzero" opacity="1" marker-start="" marker-mid="" marker-end="" d="M610.2727355957031,370.68181800842285 C610.2727355957031,345.54369646146154 632.6484262034379,325.18181800842285 660.2727355957031,325.18181800842285 C687.8970449879683,325.18181800842285 710.2727355957031,345.54369646146154 710.2727355957031,370.68181800842285 C710.2727355957031,395.81993955538417 687.8970449879683,416.18181800842285 660.2727355957031,416.18181800842285 C632.6484262034379,416.18181800842285 610.2727355957031,395.81993955538417 610.2727355957031,370.68181800842285 z" class="" id="svg_4"/></g></svg>